<?xml version="1.0" encoding="UTF-8"?>
<svg id="Layer_1" xmlns="http://www.w3.org/2000/svg" version="1.1" viewBox="0 0 1275.75 261.75">
  <!-- Generator: Adobe Illustrator 30.6.0, SVG Export Plug-In . SVG Version: 2.1.4 Build 109)  -->
  <path d="M442.91,0l2.05.43c28.53,1.65,55.44,13.22,76.4,32.51,26.82,24.68,41.28,58.84,41.06,95.79l29.43-108.76c1.91-7.04,9-11.82,16.04-11.78l69.29.45c3.15.02,6.22,2.1,7.07,4.9.78,2.57.66,5.44-.34,8.1l-33.16,88.09c-.94,2.51.18,5.23,2.05,6.63,2.5,1.88,5.08,1.02,6.83-1.33l72.89-97.76c1.83-2.45,3.2-4.76,5.93-6.22,3.17-1.71,7.03-3.49,10.96-3.45l70.36.78c3.06.03,5.33.76,7.35,3.08,2.99-1.3,6.56-2.94,10.04-3.13l14.29-.75,198.2.78c8.18.03,16.62,2.88,17.34,10.91.29,3.32.11,6.87-.78,10.14l-4.58,16.91-4.46,16.24c-.07.45.41,1.03.6.45,9.81-16.99,23.49-30.8,39.8-41.15,19.63-12.46,41.67-17.26,64.67-17.4,30.68-.18,59.57,10.92,80.98,33.13,18.3,19,29.8,43.69,31.98,70.23l.04,8.37c0,.32.36,1.44.5,1.17v1l-.5.52-.17,10.89-1.4,9.6-20.96,98.88c-1.88,8.88-10.4,16.32-19.43,16.33l-76.5.07c-74.44.07-127.12-66.75-116.44-138.85-2.66,2.02-5.4,3.74-8.69,3.96l-13.89.93-38.02.67c-3.98.07-8.75,2.46-9.81,6.74l-28.11,113.55c-3.56,7.81-10.92,12.47-19.57,12.21l-68.22-.37c-7.02-.04-12.32-5.65-13.28-12.06-.5-3.33-.4-6.22.32-9.56l21.72-101.44c.5-2.34.09-5.11-1.23-6.81-1.41-1.81-4.27-2.6-6.63-2.57l-37.94.53c-4.92.07-9.84-.95-14.29-2.51-10.28-3.62-7.14-14.79-4.41-23.87l15.03-49.99c-.04-.94-.53-.75-1.01.25l-60.92,82.33c-1.24,1.68-1.74,3.62-1.3,5.45.33,1.39,1.85,4.03,3.8,4.05l29.91.31c8.81.09,15.58,11.74,13.34,20.22l-21.87,82.84c-1.86,7.05-8.46,13.97-15.87,13.99l-61.49.18c-13,.04-19.92-12.81-17.52-23.58l5.34-23.91c.34-1.54-1.1-3.54-2.04-4.33-1.13-.95-4.08-1.62-5.3-.12l-33.32,41.06c-4.94,6.08-12.73,10.26-20.69,10.27l-67.47.12c-5.68.01-10.54-3.51-13.9-7.73-5.62-7.05-7.03-16.24-5.31-25.03l5.59-20.86.2-1.18c.03-.18-.5-.17-.59-.02l-.64,1.08c-21.31,35.74-58.86,58.47-99.84,61.15h-14.5l-2.03-.44c-32.3-2.33-62.2-17.16-83.66-41.27-23.13-25.89-34.33-59.37-31.94-94.47l-30.78,102.19c-2.45,8.12-7,14.8-13.25,20.3-6.06,4.64-12.9,8.18-20.81,8.15l-45.89-.19c-13.9-.06-23.53-16.9-19.18-30.96l18.74-60.6c.79-2.54-.58-4.94-2.23-6.55-1.79-1.74-5.53-2.33-7.36.14l-61.65,83.07c-6.28,8.46-16.18,14.47-26.86,14.49l-75.46.17c-6.88.02-12.71-2.91-17.21-7.85-4.21-4.56-6.71-10.21-7.52-16.44l-.8-1.68v-5l.88-3.22L48.62,35.68c1.48-5.75,4.48-10.61,8.18-14.79,6.1-6.88,14.1-10.02,23.22-10.08l60.47-.42c5.75-.04,9.97,4.75,10.45,10.06.39,4.24-.02,8.16-1.31,12.3l-25.62,81.84c2.88-1.13,4.41-3.43,6.12-5.57,5.79-7.25,11.14-14.35,16.45-22.05l36.88-53.48c7.45-10.8,18.77-17.67,31.36-20.56,6.78-1.55,13.16-2.12,20.18-2.07l65.39.45c8.67.45,15.83,4.37,21.46,10.81,9.65,11.02,11.48,25.56,7.57,40.3C351.34,25.36,389.22,2.44,431.42,0h11.5Z"/>
</svg>